<!DOCTYPE svg PUBLIC "-//W3C//DTD SVG 1.1//EN" "http://www.w3.org/Graphics/SVG/1.1/DTD/svg11.dtd">
<!-- Uploaded to: SVG Repo, www.svgrepo.com, Transformed by: SVG Repo Mixer Tools -->
<svg width="800px" height="800px" viewBox="-102.4 -102.4 1228.80 1228.80" class="icon" xmlns="http://www.w3.org/2000/svg" fill="#000000" stroke="#000000" transform="rotate(0)">
<g id="SVGRepo_bgCarrier" stroke-width="0">
<rect x="-102.4" y="-102.4" width="1228.80" height="1228.80" rx="614.4" fill="#00080a" strokewidth="0"/>
</g>
<g id="SVGRepo_tracerCarrier" stroke-linecap="round" stroke-linejoin="round" stroke="#a30000" stroke-width="120.832">
<path fill="#000000" d="M598.4 831.872H328.192a256 256 0 01-34.496-510.528A352 352 0 11598.4 831.872zm-271.36-64h272.256a288 288 0 10-248.512-417.664L335.04 381.44l-34.816 3.584a192 192 0 0026.88 382.848z"/>
</g>
<g id="SVGRepo_iconCarrier">
<path fill="#000000" d="M598.4 831.872H328.192a256 256 0 01-34.496-510.528A352 352 0 11598.4 831.872zm-271.36-64h272.256a288 288 0 10-248.512-417.664L335.04 381.44l-34.816 3.584a192 192 0 0026.88 382.848z"/>
</g>
</svg>